<?xml version="1.0" encoding="UTF-8" standalone="no"?>
<svg
   xmlns:dc="http://purl.org/dc/elements/1.1/"
   xmlns:cc="http://creativecommons.org/ns#"
   xmlns:rdf="http://www.w3.org/1999/02/22-rdf-syntax-ns#"
   xmlns:svg="http://www.w3.org/2000/svg"
   xmlns="http://www.w3.org/2000/svg"
   height="300"
   width="1966.697"
   xml:space="preserve"
   viewBox="0 0 1966.697 300"
   y="0px"
   x="0px"
   id="Layer_1"
   version="1.1"><defs
     id="defs55" /><g
     transform="matrix(1.3742556,0,0,1.3742556,0,-3.0517578e-6)"
     id="g3506"><g
       id="g3480"><polygon
         class="st0"
         points="32.4,216.9 32.4,20.7 0,53.2 0,216.9 "
         id="polygon11"
         style="fill:#000000" /><rect
         y="0.1"
         class="st0"
         width="32.400002"
         height="20.6"
         id="rect13"
         x="0"
         style="fill:#000000" /><path
         class="st0"
         d="m 283.8,108.7 -87.9,87.9 -87.9,-88 87.9,-87.9 87.9,88 z m -63,108.2 90.8,-90.5 0,-35.6 L 220.8,0 171.1,0 80.3,90.8 l 0,35.6 90.5,90.5 50,0 z"
         id="path9"
         style="fill:#000000" /><polygon
         class="st0"
         points="390.9,216.9 390.9,20.7 358.5,53.2 358.5,216.9 "
         id="polygon15"
         style="fill:#000000" /><rect
         x="358.5"
         y="0.1"
         class="st0"
         width="32.400002"
         height="20.6"
         id="rect17"
         style="fill:#000000" /></g><g
       id="g3487"><polygon
         class="st0"
         points="458.7,210 458.7,216.8 501.6,216.8 501.6,210 484.5,210 484.5,165.1 459.2,165.1 459.2,171.9 476.6,171.9 476.6,210 "
         id="polygon47"
         style="fill:#000000" /><rect
         x="476"
         y="145.60001"
         class="st0"
         width="9.1999998"
         height="9.1000004"
         id="rect19"
         style="fill:#000000" /><path
         class="st0"
         d="m 525.7,191 20.8,-20.8 20.8,20.8 -20.8,20.8 -20.8,-20.8 z m 14.8,-25.9 -21.6,21.6 0,8.5 21.7,21.7 11.9,0 21.7,-21.7 0,-8.5 -21.6,-21.6 -12.1,0 z"
         id="path49"
         style="fill:#000000" /></g><g
       id="g3492"><path
         class="st0"
         d="m 659.2,165.1 0,6.8 17.5,0 0,38.1 -18,0 0,6.8 42.9,0 0,-6.8 -17.1,0 0,-44.9 -25.3,0 z m 16.9,-10.5 9.2,0 0,-9.1 -9.2,0 0,9.1 z"
         id="path21"
         style="fill:#000000" /><path
         style="fill:#000000"
         id="path25"
         d="m 726.2,216.8 0,-51.7 7.6,0 0,5 0.2,0 c 1.4,-1.9 3.5,-3.4 6.1,-4.6 2.7,-1.2 5.5,-1.8 8.4,-1.8 5.6,0 10.1,1.7 13.5,5.2 3.4,3.5 5.1,8.1 5.1,14.1 l 0,34 -8,0 0,-31.4 c 0,-9.6 -3.9,-14.4 -11.7,-14.4 -4,0 -7.2,1.1 -9.6,3.4 -2.4,2.3 -3.6,5.4 -3.6,9.5 l 0,33 -8,0 z"
         class="st0" /><path
         style="fill:#000000"
         id="path27"
         d="m 808.9,201.8 0,-29.6 -16.5,0 0,-7.1 16.6,0 0,-12.7 7.8,0 0,12.7 18.6,0 0,7.1 -18.5,0 0,28.6 c 0,3.1 0.4,5.2 1.3,6.4 0.8,1.2 2.5,1.8 5.1,1.8 l 8.8,0 0,7.7 -9.2,0 c -4.9,0 -8.4,-1.2 -10.6,-3.8 -2.3,-2.3 -3.4,-6.1 -3.4,-11.1"
         class="st0" /><path
         style="fill:#000000"
         id="path29"
         d="m 868,186.9 30.7,0 c -0.1,-4.4 -1.4,-8.1 -3.9,-11.3 -2.5,-3.2 -6.3,-4.8 -11.4,-4.8 -5,0 -8.8,1.7 -11.4,5.1 -2.6,3.5 -4,7.1 -4,11 m 30.9,13.9 6.5,4.3 c -2,3.8 -4.7,6.9 -8.3,9.4 -3.6,2.5 -8.1,3.8 -13.3,3.8 -7,0 -12.8,-2.5 -17.4,-7.5 -4.5,-5 -6.8,-11.6 -6.8,-19.9 0,-8.3 2.2,-14.9 6.7,-19.9 4.5,-5 10.2,-7.5 17.1,-7.5 7,0 12.6,2.4 16.9,7.3 4.3,4.9 6.5,11.5 6.5,20 l 0,2.3 -39,0 c 0.1,4.9 1.4,9.1 4.1,12.6 2.7,3.4 6.6,5.2 11.7,5.2 2.3,0 4.4,-0.3 6.2,-0.9 1.8,-0.6 3.3,-1.5 4.4,-2.6 1.1,-1.1 2,-2.1 2.6,-3 0.6,-0.9 1.2,-1.9 1.9,-3.1 0,-0.2 0.1,-0.4 0.2,-0.5"
         class="st0" /><path
         style="fill:#000000"
         id="path31"
         d="m 937.7,216.8 0,-51.7 7.6,0 0,7.5 0.2,0 c 1.2,-2.3 3.1,-4.3 5.9,-6 2.7,-1.6 5.7,-2.4 8.9,-2.4 4,0 7.4,1.1 10.2,3.2 2.9,2.1 5,5.2 6.3,9.2 l -7.8,3.3 c -1.5,-5.1 -4.8,-7.6 -10.1,-7.6 -3.8,0 -7,1.4 -9.5,4.3 -2.5,2.9 -3.8,6.7 -3.8,11.4 l 0,28.8 -7.9,0 z"
         class="st0" /><path
         style="fill:#000000"
         id="path33"
         d="m 1018.7,193.5 c -4.4,1.2 -7.4,2.6 -9,4 -1.6,1.4 -2.4,3.3 -2.4,5.6 0,5.4 3.4,8.1 10.2,8.1 4.7,0 8.3,-1.1 10.8,-3.2 2.5,-2.1 3.8,-4.7 3.8,-7.8 l 0,-12.9 -0.2,0 c -0.8,1.9 -5.2,4 -13.2,6.2 m 14.3,23.3 0,-5.7 -0.2,0 c -1,1.7 -2.8,3.3 -5.6,4.8 -2.7,1.5 -6.1,2.3 -10.2,2.3 -5.7,0 -10.1,-1.4 -13.1,-4.2 -3,-2.8 -4.5,-6.3 -4.5,-10.5 0,-4.3 1.4,-7.7 4.1,-10.1 2.7,-2.4 7.2,-4.5 13.5,-6.1 5.4,-1.4 9.2,-2.6 11.5,-3.8 2.2,-1.2 3.4,-2.9 3.4,-5.3 0,-2.1 -1,-3.9 -2.9,-5.4 -2,-1.4 -4.6,-2.1 -7.9,-2.1 -6.9,0 -11.1,3.4 -12.6,10.3 l -7.4,-2.2 c 0.8,-4.5 2.9,-8.2 6.4,-11 3.5,-2.8 7.9,-4.2 13.3,-4.2 5.8,0 10.5,1.5 14.1,4.4 3.7,2.9 5.5,6.9 5.5,11.9 l 0,36.9 -7.4,0 z"
         class="st0" /><path
         style="fill:#000000"
         id="path35"
         d="m 1104.9,197 7.7,1.6 c -0.8,6 -3.2,10.8 -7.1,14.3 -3.9,3.6 -8.7,5.4 -14.4,5.4 -7,0 -12.7,-2.4 -17.1,-7.3 -4.4,-4.9 -6.6,-11.6 -6.6,-20 0,-8.4 2.3,-15 6.8,-20 4.5,-4.9 10.2,-7.4 16.9,-7.4 5.5,0 10.2,1.8 14.1,5.3 3.9,3.5 6.2,8.1 7.1,13.7 l -7.5,1.6 c -0.8,-3.8 -2.3,-7 -4.5,-9.5 -2.2,-2.5 -5.3,-3.8 -9.2,-3.8 -4.7,0 -8.5,1.8 -11.3,5.3 -2.9,3.5 -4.3,8.5 -4.3,14.8 0,6.2 1.4,11.2 4.2,14.7 2.8,3.6 6.6,5.4 11.5,5.4 3.8,0 7,-1.4 9.4,-4.2 2.3,-2.8 3.8,-6.1 4.3,-9.9"
         class="st0" /><path
         style="fill:#000000"
         id="path37"
         d="m 1150.5,201.8 0,-29.6 -16.5,0 0,-7.1 16.6,0 0,-12.7 7.8,0 0,12.7 18.6,0 0,7.1 -18.5,0 0,28.6 c 0,3.1 0.4,5.2 1.3,6.4 0.8,1.2 2.5,1.8 5.1,1.8 l 8.8,0 0,7.7 -9.2,0 c -4.9,0 -8.4,-1.2 -10.6,-3.8 -2.3,-2.3 -3.4,-6.1 -3.4,-11.1"
         class="st0" /><path
         class="st0"
         d="m 1205.7,165.1 0,6.8 17.5,0 0,38.1 -18,0 0,6.8 42.9,0 0,-6.8 -17.1,0 0,-44.9 -25.3,0 z m 16.9,-10.5 9.2,0 0,-9.1 -9.2,0 0,9.1 z"
         id="path39"
         style="fill:#000000" /><polygon
         class="st0"
         points="1296.5,216.8 1317.4,165.1 1309,165.1 1293.2,205.6 1293,205.6 1277.2,165.1 1268.8,165.1 1289.7,216.8 "
         id="polygon41"
         style="fill:#000000" /><path
         class="st0"
         d="m 1346.2,186.9 30.7,0 c -0.1,-4.4 -1.4,-8.1 -3.9,-11.3 -2.5,-3.2 -6.3,-4.8 -11.4,-4.8 -5,0 -8.8,1.7 -11.4,5.1 -2.6,3.5 -4,7.1 -4,11 m 30.9,13.9 6.5,4.3 c -1.9,3.8 -4.7,6.9 -8.3,9.4 -3.6,2.5 -8.1,3.8 -13.3,3.8 -7,0 -12.8,-2.5 -17.4,-7.5 -4.6,-5 -6.8,-11.6 -6.8,-19.9 0,-8.3 2.2,-14.9 6.7,-19.9 4.5,-5 10.2,-7.5 17.1,-7.5 7,0 12.6,2.4 16.9,7.3 4.3,4.9 6.5,11.5 6.5,20 l 0,2.3 -39,0 c 0.1,4.9 1.4,9.1 4.1,12.6 2.7,3.4 6.6,5.2 11.7,5.2 2.3,0 4.4,-0.3 6.2,-0.9 1.8,-0.6 3.3,-1.5 4.4,-2.6 1.1,-1.1 2,-2.1 2.6,-3 0.6,-0.9 1.2,-1.9 1.8,-3.1 0.1,-0.2 0.2,-0.4 0.3,-0.5"
         id="path45"
         style="fill:#000000" /><path
         class="st0"
         d="m 1404.6,164.2 0,2.7 3.8,0 0,14.8 2.9,0 0,-14.8 3.5,0 0,-2.7 -10.2,0 z m 22.4,0 -2.7,6.8 -0.1,0 -2.8,-6.8 -4,0 0,17.5 2.9,0 0,-13.6 0.1,0 2.8,7.1 2.1,0 2.8,-7.1 0.1,0 0,13.6 2.9,0 0,-17.5 -4.1,0 z"
         id="path51"
         style="fill:#000000" /></g></g><metadata
     id="metadata3531"><rdf:RDF><cc:Work
         rdf:about=""><dc:title></dc:title></cc:Work></rdf:RDF></metadata></svg>