<?xml version="1.0" standalone="no"?>
<svg xmlns="http://www.w3.org/2000/svg" width="500" height="500"><defs><clipPath id="clip-path-dot-color"><path d="M 18 162v 16h 16v -8a 8 8, 0, 0, 0, -8 -8" transform="rotate(-90,26,170)"/><path d="M 18 178v 16h 16v -8a 8 8, 0, 0, 0, -8 -8" transform="rotate(180,26,186)"/><circle cx="26" cy="218" r="8" transform="rotate(0,26,218)"/><path d="M 18 290v 16h 8a 8 8, 0, 0, 0, 0 -16" transform="rotate(-90,26,298)"/><path d="M 18 306v 16h 16v -8a 8 8, 0, 0, 0, -8 -8" transform="rotate(180,26,314)"/><path d="M 34 162v 16h 16v -8a 8 8, 0, 0, 0, -8 -8" transform="rotate(0,42,170)"/><rect x="34" y="178" width="16" height="16" transform="rotate(0,42,186)"/><path d="M 34 194v 16h 16v -8a 8 8, 0, 0, 0, -8 -8" transform="rotate(180,42,202)"/><path d="M 34 258v 16h 16v -8a 8 8, 0, 0, 0, -8 -8" transform="rotate(-90,42,266)"/><path d="M 34 274v 16h 16v -8a 8 8, 0, 0, 0, -8 -8" transform="rotate(180,42,282)"/><rect x="34" y="306" width="16" height="16" transform="rotate(0,42,314)"/><path d="M 34 322v 16h 16v -8a 8 8, 0, 0, 0, -8 -8" transform="rotate(180,42,330)"/><circle cx="58" cy="154" r="8" transform="rotate(0,58,154)"/><path d="M 50 194v 16h 8a 8 8, 0, 0, 0, 0 -16" transform="rotate(0,58,202)"/><path d="M 50 226v 16h 8a 8 8, 0, 0, 0, 0 -16" transform="rotate(180,58,234)"/><rect x="50" y="258" width="16" height="16" transform="rotate(0,58,266)"/><rect x="50" y="274" width="16" height="16" transform="rotate(0,58,282)"/><rect x="50" y="290" width="16" height="16" transform="rotate(0,58,298)"/><rect x="50" y="306" width="16" height="16" transform="rotate(0,58,314)"/><rect x="50" y="322" width="16" height="16" transform="rotate(0,58,330)"/><path d="M 50 338v 16h 16v -8a 8 8, 0, 0, 0, -8 -8" transform="rotate(180,58,346)"/><rect x="66" y="226" width="16" height="16" transform="rotate(0,74,234)"/><path d="M 66 258v 16h 16v -8a 8 8, 0, 0, 0, -8 -8" transform="rotate(0,74,266)"/><path d="M 66 274v 16h 16v -8a 8 8, 0, 0, 0, -8 -8" transform="rotate(90,74,282)"/><rect x="66" y="306" width="16" height="16" transform="rotate(0,74,314)"/><path d="M 66 338v 16h 8a 8 8, 0, 0, 0, 0 -16" transform="rotate(0,74,346)"/><path d="M 82 146v 16h 16v -8a 8 8, 0, 0, 0, -8 -8" transform="rotate(-90,90,154)"/><path d="M 82 162v 16h 16v -8a 8 8, 0, 0, 0, -8 -8" transform="rotate(180,90,170)"/><path d="M 82 226v 16h 16v -8a 8 8, 0, 0, 0, -8 -8" transform="rotate(0,90,234)"/><path d="M 82 242v 16h 8a 8 8, 0, 0, 0, 0 -16" transform="rotate(90,90,250)"/><rect x="82" y="306" width="16" height="16" transform="rotate(0,90,314)"/><rect x="98" y="146" width="16" height="16" transform="rotate(0,106,154)"/><path d="M 98 162v 16h 16v -8a 8 8, 0, 0, 0, -8 -8" transform="rotate(90,106,170)"/><path d="M 98 194v 16h 8a 8 8, 0, 0, 0, 0 -16" transform="rotate(-90,106,202)"/><path d="M 98 210v 16h 16v -8a 8 8, 0, 0, 0, -8 -8" transform="rotate(180,106,218)"/><path d="M 98 274v 16h 8a 8 8, 0, 0, 0, 0 -16" transform="rotate(180,106,282)"/><rect x="98" y="306" width="16" height="16" transform="rotate(0,106,314)"/><path d="M 98 322v 16h 8a 8 8, 0, 0, 0, 0 -16" transform="rotate(90,106,330)"/><path d="M 114 146v 16h 8a 8 8, 0, 0, 0, 0 -16" transform="rotate(0,122,154)"/><path d="M 114 178v 16h 8a 8 8, 0, 0, 0, 0 -16" transform="rotate(180,122,186)"/><rect x="114" y="210" width="16" height="16" transform="rotate(0,122,218)"/><circle cx="122" cy="250" r="8" transform="rotate(0,122,250)"/><path d="M 114 274v 16h 8a 8 8, 0, 0, 0, 0 -16" transform="rotate(0,122,282)"/><rect x="114" y="306" width="16" height="16" transform="rotate(0,122,314)"/><path d="M 114 338v 16h 8a 8 8, 0, 0, 0, 0 -16" transform="rotate(180,122,346)"/><path d="M 130 162v 16h 8a 8 8, 0, 0, 0, 0 -16" transform="rotate(-90,138,170)"/><rect x="130" y="178" width="16" height="16" transform="rotate(0,138,186)"/><path d="M 130 210v 16h 8a 8 8, 0, 0, 0, 0 -16" transform="rotate(0,138,218)"/><path d="M 130 258v 16h 8a 8 8, 0, 0, 0, 0 -16" transform="rotate(180,138,266)"/><path d="M 130 290v 16h 16v -8a 8 8, 0, 0, 0, -8 -8" transform="rotate(-90,138,298)"/><rect x="130" y="306" width="16" height="16" transform="rotate(0,138,314)"/><rect x="130" y="322" width="16" height="16" transform="rotate(0,138,330)"/><path d="M 130 338v 16h 16v -8a 8 8, 0, 0, 0, -8 -8" transform="rotate(90,138,346)"/><path d="M 146 34v 16h 8a 8 8, 0, 0, 0, 0 -16" transform="rotate(180,154,42)"/><path d="M 146 82v 16h 8a 8 8, 0, 0, 0, 0 -16" transform="rotate(180,154,90)"/><circle cx="154" cy="122" r="8" transform="rotate(0,154,122)"/><path d="M 146 146v 16h 8a 8 8, 0, 0, 0, 0 -16" transform="rotate(180,154,154)"/><path d="M 146 178v 16h 8a 8 8, 0, 0, 0, 0 -16" transform="rotate(0,154,186)"/><circle cx="154" cy="234" r="8" transform="rotate(0,154,234)"/><rect x="146" y="258" width="16" height="16" transform="rotate(0,154,266)"/><path d="M 146 290v 16h 8a 8 8, 0, 0, 0, 0 -16" transform="rotate(0,154,298)"/><circle cx="154" cy="362" r="8" transform="rotate(0,154,362)"/><path d="M 146 386v 16h 16v -8a 8 8, 0, 0, 0, -8 -8" transform="rotate(-90,154,394)"/><path d="M 146 402v 16h 16v -8a 8 8, 0, 0, 0, -8 -8" transform="rotate(180,154,410)"/><circle cx="154" cy="442" r="8" transform="rotate(0,154,442)"/><path d="M 162 18v 16h 16v -8a 8 8, 0, 0, 0, -8 -8" transform="rotate(-90,170,26)"/><path d="M 162 34v 16h 16v -8a 8 8, 0, 0, 0, -8 -8" transform="rotate(90,170,42)"/><path d="M 162 66v 16h 16v -8a 8 8, 0, 0, 0, -8 -8" transform="rotate(-90,170,74)"/><path d="M 162 82v 16h 16v -8a 8 8, 0, 0, 0, -8 -8" transform="rotate(90,170,90)"/><rect x="162" y="146" width="16" height="16" transform="rotate(0,170,154)"/><path d="M 162 194v 16h 16v -8a 8 8, 0, 0, 0, -8 -8" transform="rotate(-90,170,202)"/><path d="M 162 210v 16h 16v -8a 8 8, 0, 0, 0, -8 -8" transform="rotate(180,170,218)"/><path d="M 162 242v 16h 8a 8 8, 0, 0, 0, 0 -16" transform="rotate(-90,170,250)"/><rect x="162" y="258" width="16" height="16" transform="rotate(0,170,266)"/><path d="M 162 274v 16h 16v -8a 8 8, 0, 0, 0, -8 -8" transform="rotate(180,170,282)"/><path d="M 162 370v 16h 8a 8 8, 0, 0, 0, 0 -16" transform="rotate(-90,170,378)"/><rect x="162" y="386" width="16" height="16" transform="rotate(0,170,394)"/><rect x="162" y="402" width="16" height="16" transform="rotate(0,170,410)"/><path d="M 162 418v 16h 16v -8a 8 8, 0, 0, 0, -8 -8" transform="rotate(180,170,426)"/><path d="M 162 450v 16h 8a 8 8, 0, 0, 0, 0 -16" transform="rotate(-90,170,458)"/><path d="M 162 466v 16h 16v -8a 8 8, 0, 0, 0, -8 -8" transform="rotate(180,170,474)"/><path d="M 178 18v 16h 8a 8 8, 0, 0, 0, 0 -16" transform="rotate(0,186,26)"/><path d="M 178 50v 16h 8a 8 8, 0, 0, 0, 0 -16" transform="rotate(-90,186,58)"/><rect x="178" y="66" width="16" height="16" transform="rotate(0,186,74)"/><path d="M 178 98v 16h 8a 8 8, 0, 0, 0, 0 -16" transform="rotate(-90,186,106)"/><path d="M 178 114v 16h 8a 8 8, 0, 0, 0, 0 -16" transform="rotate(90,186,122)"/><rect x="178" y="146" width="16" height="16" transform="rotate(0,186,154)"/><path d="M 178 194v 16h 16v -8a 8 8, 0, 0, 0, -8 -8" transform="rotate(0,186,202)"/><rect x="178" y="210" width="16" height="16" transform="rotate(0,186,218)"/><path d="M 178 226v 16h 16v -8a 8 8, 0, 0, 0, -8 -8" transform="rotate(180,186,234)"/><rect x="178" y="274" width="16" height="16" transform="rotate(0,186,282)"/><path d="M 178 306v 16h 8a 8 8, 0, 0, 0, 0 -16" transform="rotate(180,186,314)"/><path d="M 178 338v 16h 8a 8 8, 0, 0, 0, 0 -16" transform="rotate(-90,186,346)"/><path d="M 178 354v 16h 16v -8a 8 8, 0, 0, 0, -8 -8" transform="rotate(180,186,362)"/><path d="M 178 402v 16h 16v -8a 8 8, 0, 0, 0, -8 -8" transform="rotate(0,186,410)"/><rect x="178" y="418" width="16" height="16" transform="rotate(0,186,426)"/><rect x="178" y="466" width="16" height="16" transform="rotate(0,186,474)"/><path d="M 194 66v 16h 16v -8a 8 8, 0, 0, 0, -8 -8" transform="rotate(0,202,74)"/><path d="M 194 82v 16h 8a 8 8, 0, 0, 0, 0 -16" transform="rotate(90,202,90)"/><rect x="194" y="146" width="16" height="16" transform="rotate(0,202,154)"/><circle cx="202" cy="186" r="8" transform="rotate(0,202,186)"/><rect x="194" y="210" width="16" height="16" transform="rotate(0,202,218)"/><rect x="194" y="226" width="16" height="16" transform="rotate(0,202,234)"/><rect x="194" y="242" width="16" height="16" transform="rotate(0,202,250)"/><rect x="194" y="258" width="16" height="16" transform="rotate(0,202,266)"/><rect x="194" y="274" width="16" height="16" transform="rotate(0,202,282)"/><rect x="194" y="290" width="16" height="16" transform="rotate(0,202,298)"/><path d="M 194 306v 16h 16v -8a 8 8, 0, 0, 0, -8 -8" transform="rotate(90,202,314)"/><path d="M 194 354v 16h 8a 8 8, 0, 0, 0, 0 -16" transform="rotate(0,202,362)"/><path d="M 194 386v 16h 8a 8 8, 0, 0, 0, 0 -16" transform="rotate(180,202,394)"/><rect x="194" y="418" width="16" height="16" transform="rotate(0,202,426)"/><path d="M 194 450v 16h 8a 8 8, 0, 0, 0, 0 -16" transform="rotate(-90,202,458)"/><rect x="194" y="466" width="16" height="16" transform="rotate(0,202,474)"/><circle cx="218" cy="26" r="8" transform="rotate(0,218,26)"/><circle cx="218" cy="58" r="8" transform="rotate(0,218,58)"/><path d="M 210 114v 16h 8a 8 8, 0, 0, 0, 0 -16" transform="rotate(-90,218,122)"/><rect x="210" y="130" width="16" height="16" transform="rotate(0,218,138)"/><path d="M 210 146v 16h 16v -8a 8 8, 0, 0, 0, -8 -8" transform="rotate(90,218,154)"/><path d="M 210 210v 16h 16v -8a 8 8, 0, 0, 0, -8 -8" transform="rotate(0,218,218)"/><rect x="210" y="226" width="16" height="16" transform="rotate(0,218,234)"/><rect x="210" y="242" width="16" height="16" transform="rotate(0,218,250)"/><rect x="210" y="258" width="16" height="16" transform="rotate(0,218,266)"/><path d="M 210 290v 16h 8a 8 8, 0, 0, 0, 0 -16" transform="rotate(0,218,298)"/><path d="M 210 322v 16h 8a 8 8, 0, 0, 0, 0 -16" transform="rotate(-90,218,330)"/><path d="M 210 338v 16h 8a 8 8, 0, 0, 0, 0 -16" transform="rotate(90,218,346)"/><path d="M 210 386v 16h 8a 8 8, 0, 0, 0, 0 -16" transform="rotate(0,218,394)"/><path d="M 210 418v 16h 8a 8 8, 0, 0, 0, 0 -16" transform="rotate(0,218,426)"/><rect x="210" y="466" width="16" height="16" transform="rotate(0,218,474)"/><path d="M 226 34v 16h 8a 8 8, 0, 0, 0, 0 -16" transform="rotate(180,234,42)"/><circle cx="234" cy="106" r="8" transform="rotate(0,234,106)"/><rect x="226" y="130" width="16" height="16" transform="rotate(0,234,138)"/><path d="M 226 162v 16h 8a 8 8, 0, 0, 0, 0 -16" transform="rotate(180,234,170)"/><rect x="226" y="226" width="16" height="16" transform="rotate(0,234,234)"/><rect x="226" y="242" width="16" height="16" transform="rotate(0,234,250)"/><path d="M 226 258v 16h 16v -8a 8 8, 0, 0, 0, -8 -8" transform="rotate(90,234,266)"/><circle cx="234" cy="314" r="8" transform="rotate(0,234,314)"/><circle cx="234" cy="378" r="8" transform="rotate(0,234,378)"/><path d="M 226 402v 16h 8a 8 8, 0, 0, 0, 0 -16" transform="rotate(180,234,410)"/><circle cx="234" cy="442" r="8" transform="rotate(0,234,442)"/><rect x="226" y="466" width="16" height="16" transform="rotate(0,234,474)"/><path d="M 242 18v 16h 16v -8a 8 8, 0, 0, 0, -8 -8" transform="rotate(-90,250,26)"/><rect x="242" y="34" width="16" height="16" transform="rotate(0,250,42)"/><rect x="242" y="50" width="16" height="16" transform="rotate(0,250,58)"/><rect x="242" y="66" width="16" height="16" transform="rotate(0,250,74)"/><path d="M 242 82v 16h 16v -8a 8 8, 0, 0, 0, -8 -8" transform="rotate(180,250,90)"/><path d="M 242 114v 16h 8a 8 8, 0, 0, 0, 0 -16" transform="rotate(-90,250,122)"/><rect x="242" y="130" width="16" height="16" transform="rotate(0,250,138)"/><rect x="242" y="146" width="16" height="16" transform="rotate(0,250,154)"/><rect x="242" y="162" width="16" height="16" transform="rotate(0,250,170)"/><path d="M 242 178v 16h 8a 8 8, 0, 0, 0, 0 -16" transform="rotate(90,250,186)"/><rect x="242" y="226" width="16" height="16" transform="rotate(0,250,234)"/><path d="M 242 338v 16h 8a 8 8, 0, 0, 0, 0 -16" transform="rotate(180,250,346)"/><path d="M 242 402v 16h 8a 8 8, 0, 0, 0, 0 -16" transform="rotate(0,250,410)"/><path d="M 242 466v 16h 8a 8 8, 0, 0, 0, 0 -16" transform="rotate(0,250,474)"/><path d="M 258 18v 16h 8a 8 8, 0, 0, 0, 0 -16" transform="rotate(0,266,26)"/><path d="M 258 50v 16h 16v -8a 8 8, 0, 0, 0, -8 -8" transform="rotate(0,266,58)"/><rect x="258" y="66" width="16" height="16" transform="rotate(0,266,74)"/><rect x="258" y="82" width="16" height="16" transform="rotate(0,266,90)"/><path d="M 258 98v 16h 8a 8 8, 0, 0, 0, 0 -16" transform="rotate(90,266,106)"/><path d="M 258 130v 16h 16v -8a 8 8, 0, 0, 0, -8 -8" transform="rotate(0,266,138)"/><rect x="258" y="146" width="16" height="16" transform="rotate(0,266,154)"/><rect x="258" y="162" width="16" height="16" transform="rotate(0,266,170)"/><rect x="258" y="226" width="16" height="16" transform="rotate(0,266,234)"/><circle cx="266" cy="266" r="8" transform="rotate(0,266,266)"/><path d="M 258 290v 16h 8a 8 8, 0, 0, 0, 0 -16" transform="rotate(180,266,298)"/><path d="M 258 322v 16h 16v -8a 8 8, 0, 0, 0, -8 -8" transform="rotate(-90,266,330)"/><rect x="258" y="338" width="16" height="16" transform="rotate(0,266,346)"/><circle cx="266" cy="394" r="8" transform="rotate(0,266,394)"/><circle cx="266" cy="426" r="8" transform="rotate(0,266,426)"/><circle cx="282" cy="42" r="8" transform="rotate(0,282,42)"/><circle cx="282" cy="122" r="8" transform="rotate(0,282,122)"/><path d="M 274 162v 16h 16v -8a 8 8, 0, 0, 0, -8 -8" transform="rotate(0,282,170)"/><path d="M 274 178v 16h 8a 8 8, 0, 0, 0, 0 -16" transform="rotate(90,282,186)"/><path d="M 274 210v 16h 8a 8 8, 0, 0, 0, 0 -16" transform="rotate(-90,282,218)"/><path d="M 274 226v 16h 16v -8a 8 8, 0, 0, 0, -8 -8" transform="rotate(90,282,234)"/><rect x="274" y="290" width="16" height="16" transform="rotate(0,282,298)"/><path d="M 274 322v 16h 16v -8a 8 8, 0, 0, 0, -8 -8" transform="rotate(0,282,330)"/><rect x="274" y="338" width="16" height="16" transform="rotate(0,282,346)"/><path d="M 274 354v 16h 8a 8 8, 0, 0, 0, 0 -16" transform="rotate(90,282,362)"/><circle cx="282" cy="458" r="8" transform="rotate(0,282,458)"/><circle cx="298" cy="26" r="8" transform="rotate(0,298,26)"/><path d="M 290 82v 16h 8a 8 8, 0, 0, 0, 0 -16" transform="rotate(-90,298,90)"/><path d="M 290 98v 16h 16v -8a 8 8, 0, 0, 0, -8 -8" transform="rotate(180,298,106)"/><circle cx="298" cy="154" r="8" transform="rotate(0,298,154)"/><path d="M 290 274v 16h 16v -8a 8 8, 0, 0, 0, -8 -8" transform="rotate(-90,298,282)"/><rect x="290" y="290" width="16" height="16" transform="rotate(0,298,298)"/><path d="M 290 306v 16h 16v -8a 8 8, 0, 0, 0, -8 -8" transform="rotate(180,298,314)"/><path d="M 290 370v 16h 8a 8 8, 0, 0, 0, 0 -16" transform="rotate(-90,298,378)"/><rect x="290" y="386" width="16" height="16" transform="rotate(0,298,394)"/><path d="M 290 402v 16h 16v -8a 8 8, 0, 0, 0, -8 -8" transform="rotate(180,298,410)"/><path d="M 290 466v 16h 8a 8 8, 0, 0, 0, 0 -16" transform="rotate(180,298,474)"/><path d="M 306 50v 16h 8a 8 8, 0, 0, 0, 0 -16" transform="rotate(-90,314,58)"/><path d="M 306 66v 16h 16v -8a 8 8, 0, 0, 0, -8 -8" transform="rotate(180,314,74)"/><rect x="306" y="98" width="16" height="16" transform="rotate(0,314,106)"/><path d="M 306 114v 16h 8a 8 8, 0, 0, 0, 0 -16" transform="rotate(90,314,122)"/><path d="M 306 274v 16h 8a 8 8, 0, 0, 0, 0 -16" transform="rotate(0,314,282)"/><rect x="306" y="306" width="16" height="16" transform="rotate(0,314,314)"/><path d="M 306 338v 16h 8a 8 8, 0, 0, 0, 0 -16" transform="rotate(180,314,346)"/><path d="M 306 386v 16h 16v -8a 8 8, 0, 0, 0, -8 -8" transform="rotate(0,314,394)"/><rect x="306" y="402" width="16" height="16" transform="rotate(0,314,410)"/><circle cx="314" cy="442" r="8" transform="rotate(0,314,442)"/><path d="M 306 466v 16h 8a 8 8, 0, 0, 0, 0 -16" transform="rotate(0,314,474)"/><path d="M 322 66v 16h 8a 8 8, 0, 0, 0, 0 -16" transform="rotate(0,330,74)"/><path d="M 322 98v 16h 8a 8 8, 0, 0, 0, 0 -16" transform="rotate(0,330,106)"/><path d="M 322 130v 16h 16v -8a 8 8, 0, 0, 0, -8 -8" transform="rotate(-90,330,138)"/><rect x="322" y="146" width="16" height="16" transform="rotate(0,330,154)"/><path d="M 322 162v 16h 8a 8 8, 0, 0, 0, 0 -16" transform="rotate(90,330,170)"/><circle cx="330" cy="250" r="8" transform="rotate(0,330,250)"/><path d="M 322 290v 16h 16v -8a 8 8, 0, 0, 0, -8 -8" transform="rotate(-90,330,298)"/><rect x="322" y="306" width="16" height="16" transform="rotate(0,330,314)"/><rect x="322" y="322" width="16" height="16" transform="rotate(0,330,330)"/><rect x="322" y="338" width="16" height="16" transform="rotate(0,330,346)"/><rect x="322" y="402" width="16" height="16" transform="rotate(0,330,410)"/><path d="M 322 418v 16h 16v -8a 8 8, 0, 0, 0, -8 -8" transform="rotate(180,330,426)"/><path d="M 338 18v 16h 8a 8 8, 0, 0, 0, 0 -16" transform="rotate(-90,346,26)"/><path d="M 338 34v 16h 8a 8 8, 0, 0, 0, 0 -16" transform="rotate(90,346,42)"/><circle cx="346" cy="90" r="8" transform="rotate(0,346,90)"/><path d="M 338 114v 16h 8a 8 8, 0, 0, 0, 0 -16" transform="rotate(-90,346,122)"/><rect x="338" y="130" width="16" height="16" transform="rotate(0,346,138)"/><rect x="338" y="146" width="16" height="16" transform="rotate(0,346,154)"/><path d="M 338 194v 16h 16v -8a 8 8, 0, 0, 0, -8 -8" transform="rotate(-90,346,202)"/><path d="M 338 210v 16h 16v -8a 8 8, 0, 0, 0, -8 -8" transform="rotate(180,346,218)"/><path d="M 338 258v 16h 8a 8 8, 0, 0, 0, 0 -16" transform="rotate(180,346,266)"/><path d="M 338 290v 16h 8a 8 8, 0, 0, 0, 0 -16" transform="rotate(0,346,298)"/><rect x="338" y="338" width="16" height="16" transform="rotate(0,346,346)"/><rect x="338" y="354" width="16" height="16" transform="rotate(0,346,362)"/><rect x="338" y="370" width="16" height="16" transform="rotate(0,346,378)"/><rect x="338" y="386" width="16" height="16" transform="rotate(0,346,394)"/><rect x="338" y="402" width="16" height="16" transform="rotate(0,346,410)"/><path d="M 338 418v 16h 16v -8a 8 8, 0, 0, 0, -8 -8" transform="rotate(90,346,426)"/><path d="M 338 450v 16h 8a 8 8, 0, 0, 0, 0 -16" transform="rotate(-90,346,458)"/><path d="M 338 466v 16h 16v -8a 8 8, 0, 0, 0, -8 -8" transform="rotate(180,346,474)"/><path d="M 354 146v 16h 16v -8a 8 8, 0, 0, 0, -8 -8" transform="rotate(0,362,154)"/><path d="M 354 162v 16h 16v -8a 8 8, 0, 0, 0, -8 -8" transform="rotate(180,362,170)"/><path d="M 354 194v 16h 16v -8a 8 8, 0, 0, 0, -8 -8" transform="rotate(0,362,202)"/><rect x="354" y="210" width="16" height="16" transform="rotate(0,362,218)"/><rect x="354" y="226" width="16" height="16" transform="rotate(0,362,234)"/><rect x="354" y="242" width="16" height="16" transform="rotate(0,362,250)"/><rect x="354" y="258" width="16" height="16" transform="rotate(0,362,266)"/><path d="M 354 274v 16h 8a 8 8, 0, 0, 0, 0 -16" transform="rotate(90,362,282)"/><path d="M 354 322v 16h 16v -8a 8 8, 0, 0, 0, -8 -8" transform="rotate(-90,362,330)"/><rect x="354" y="338" width="16" height="16" transform="rotate(0,362,346)"/><rect x="354" y="402" width="16" height="16" transform="rotate(0,362,410)"/><circle cx="362" cy="442" r="8" transform="rotate(0,362,442)"/><rect x="354" y="466" width="16" height="16" transform="rotate(0,362,474)"/><path d="M 370 162v 16h 16v -8a 8 8, 0, 0, 0, -8 -8" transform="rotate(0,378,170)"/><path d="M 370 178v 16h 16v -8a 8 8, 0, 0, 0, -8 -8" transform="rotate(180,378,186)"/><rect x="370" y="210" width="16" height="16" transform="rotate(0,378,218)"/><rect x="370" y="258" width="16" height="16" transform="rotate(0,378,266)"/><path d="M 370 290v 16h 16v -8a 8 8, 0, 0, 0, -8 -8" transform="rotate(-90,378,298)"/><rect x="370" y="306" width="16" height="16" transform="rotate(0,378,314)"/><rect x="370" y="322" width="16" height="16" transform="rotate(0,378,330)"/><rect x="370" y="338" width="16" height="16" transform="rotate(0,378,346)"/><circle cx="378" cy="378" r="8" transform="rotate(0,378,378)"/><rect x="370" y="402" width="16" height="16" transform="rotate(0,378,410)"/><path d="M 370 466v 16h 8a 8 8, 0, 0, 0, 0 -16" transform="rotate(0,378,474)"/><rect x="386" y="178" width="16" height="16" transform="rotate(0,394,186)"/><rect x="386" y="210" width="16" height="16" transform="rotate(0,394,218)"/><path d="M 386 226v 16h 16v -8a 8 8, 0, 0, 0, -8 -8" transform="rotate(180,394,234)"/><path d="M 386 258v 16h 8a 8 8, 0, 0, 0, 0 -16" transform="rotate(0,394,266)"/><rect x="386" y="290" width="16" height="16" transform="rotate(0,394,298)"/><rect x="386" y="322" width="16" height="16" transform="rotate(0,394,330)"/><rect x="386" y="338" width="16" height="16" transform="rotate(0,394,346)"/><rect x="386" y="402" width="16" height="16" transform="rotate(0,394,410)"/><path d="M 386 418v 16h 8a 8 8, 0, 0, 0, 0 -16" transform="rotate(90,394,426)"/><path d="M 386 450v 16h 8a 8 8, 0, 0, 0, 0 -16" transform="rotate(180,394,458)"/><path d="M 402 146v 16h 8a 8 8, 0, 0, 0, 0 -16" transform="rotate(-90,410,154)"/><rect x="402" y="162" width="16" height="16" transform="rotate(0,410,170)"/><rect x="402" y="178" width="16" height="16" transform="rotate(0,410,186)"/><rect x="402" y="194" width="16" height="16" transform="rotate(0,410,202)"/><rect x="402" y="210" width="16" height="16" transform="rotate(0,410,218)"/><rect x="402" y="226" width="16" height="16" transform="rotate(0,410,234)"/><path d="M 402 242v 16h 8a 8 8, 0, 0, 0, 0 -16" transform="rotate(90,410,250)"/><rect x="402" y="290" width="16" height="16" transform="rotate(0,410,298)"/><rect x="402" y="306" width="16" height="16" transform="rotate(0,410,314)"/><rect x="402" y="322" width="16" height="16" transform="rotate(0,410,330)"/><rect x="402" y="338" width="16" height="16" transform="rotate(0,410,346)"/><rect x="402" y="354" width="16" height="16" transform="rotate(0,410,362)"/><rect x="402" y="370" width="16" height="16" transform="rotate(0,410,378)"/><rect x="402" y="386" width="16" height="16" transform="rotate(0,410,394)"/><path d="M 402 402v 16h 16v -8a 8 8, 0, 0, 0, -8 -8" transform="rotate(90,410,410)"/><rect x="402" y="450" width="16" height="16" transform="rotate(0,410,458)"/><path d="M 402 466v 16h 8a 8 8, 0, 0, 0, 0 -16" transform="rotate(90,410,474)"/><rect x="418" y="290" width="16" height="16" transform="rotate(0,426,298)"/><path d="M 418 306v 16h 16v -8a 8 8, 0, 0, 0, -8 -8" transform="rotate(90,426,314)"/><path d="M 418 386v 16h 8a 8 8, 0, 0, 0, 0 -16" transform="rotate(0,426,394)"/><path d="M 418 434v 16h 8a 8 8, 0, 0, 0, 0 -16" transform="rotate(-90,426,442)"/><rect x="418" y="450" width="16" height="16" transform="rotate(0,426,458)"/><circle cx="442" cy="170" r="8" transform="rotate(0,442,170)"/><path d="M 434 242v 16h 16v -8a 8 8, 0, 0, 0, -8 -8" transform="rotate(-90,442,250)"/><path d="M 434 258v 16h 8a 8 8, 0, 0, 0, 0 -16" transform="rotate(90,442,266)"/><rect x="434" y="290" width="16" height="16" transform="rotate(0,442,298)"/><path d="M 434 322v 16h 8a 8 8, 0, 0, 0, 0 -16" transform="rotate(-90,442,330)"/><rect x="434" y="338" width="16" height="16" transform="rotate(0,442,346)"/><path d="M 434 354v 16h 8a 8 8, 0, 0, 0, 0 -16" transform="rotate(90,442,362)"/><circle cx="442" cy="426" r="8" transform="rotate(0,442,426)"/><rect x="434" y="450" width="16" height="16" transform="rotate(0,442,458)"/><path d="M 434 466v 16h 16v -8a 8 8, 0, 0, 0, -8 -8" transform="rotate(180,442,474)"/><circle cx="458" cy="154" r="8" transform="rotate(0,458,154)"/><path d="M 450 194v 16h 8a 8 8, 0, 0, 0, 0 -16" transform="rotate(180,458,202)"/><path d="M 450 242v 16h 8a 8 8, 0, 0, 0, 0 -16" transform="rotate(0,458,250)"/><rect x="450" y="290" width="16" height="16" transform="rotate(0,458,298)"/><path d="M 450 306v 16h 8a 8 8, 0, 0, 0, 0 -16" transform="rotate(90,458,314)"/><rect x="450" y="338" width="16" height="16" transform="rotate(0,458,346)"/><circle cx="458" cy="394" r="8" transform="rotate(0,458,394)"/><rect x="450" y="450" width="16" height="16" transform="rotate(0,458,458)"/><path d="M 450 466v 16h 16v -8a 8 8, 0, 0, 0, -8 -8" transform="rotate(90,458,474)"/><path d="M 466 194v 16h 8a 8 8, 0, 0, 0, 0 -16" transform="rotate(0,474,202)"/><circle cx="474" cy="266" r="8" transform="rotate(0,474,266)"/><path d="M 466 290v 16h 8a 8 8, 0, 0, 0, 0 -16" transform="rotate(0,474,298)"/><path d="M 466 322v 16h 8a 8 8, 0, 0, 0, 0 -16" transform="rotate(-90,474,330)"/><rect x="466" y="338" width="16" height="16" transform="rotate(0,474,346)"/><path d="M 466 354v 16h 8a 8 8, 0, 0, 0, 0 -16" transform="rotate(90,474,362)"/><path d="M 466 402v 16h 8a 8 8, 0, 0, 0, 0 -16" transform="rotate(-90,474,410)"/><path d="M 466 418v 16h 8a 8 8, 0, 0, 0, 0 -16" transform="rotate(90,474,426)"/><path d="M 466 450v 16h 8a 8 8, 0, 0, 0, 0 -16" transform="rotate(0,474,458)"/></clipPath><clipPath id="clip-path-corners-square-color-0-0"><path clip-rule="evenodd" d="M 18 58v 32a 40 40, 0, 0, 0, 40 40h 32a 40 40, 0, 0, 0, 40 -40v -32a 40 40, 0, 0, 0, -40 -40h -32a 40 40, 0, 0, 0, -40 40M 58 34h 32a 24 24, 0, 0, 1, 24 24v 32a 24 24, 0, 0, 1, -24 24h -32a 24 24, 0, 0, 1, -24 -24v -32a 24 24, 0, 0, 1, 24 -24" transform="rotate(0,74,74)"/></clipPath><clipPath id="clip-path-corners-dot-color-0-0"><circle cx="74" cy="74" r="24" transform="rotate(0,74,74)"/></clipPath><clipPath id="clip-path-corners-square-color-1-0"><path clip-rule="evenodd" d="M 370 58v 32a 40 40, 0, 0, 0, 40 40h 32a 40 40, 0, 0, 0, 40 -40v -32a 40 40, 0, 0, 0, -40 -40h -32a 40 40, 0, 0, 0, -40 40M 410 34h 32a 24 24, 0, 0, 1, 24 24v 32a 24 24, 0, 0, 1, -24 24h -32a 24 24, 0, 0, 1, -24 -24v -32a 24 24, 0, 0, 1, 24 -24" transform="rotate(90,426,74)"/></clipPath><clipPath id="clip-path-corners-dot-color-1-0"><circle cx="426" cy="74" r="24" transform="rotate(90,426,74)"/></clipPath><clipPath id="clip-path-corners-square-color-0-1"><path clip-rule="evenodd" d="M 18 410v 32a 40 40, 0, 0, 0, 40 40h 32a 40 40, 0, 0, 0, 40 -40v -32a 40 40, 0, 0, 0, -40 -40h -32a 40 40, 0, 0, 0, -40 40M 58 386h 32a 24 24, 0, 0, 1, 24 24v 32a 24 24, 0, 0, 1, -24 24h -32a 24 24, 0, 0, 1, -24 -24v -32a 24 24, 0, 0, 1, 24 -24" transform="rotate(-90,74,426)"/></clipPath><clipPath id="clip-path-corners-dot-color-0-1"><circle cx="74" cy="426" r="24" transform="rotate(-90,74,426)"/></clipPath></defs><rect x="0" y="0" height="500" width="500" clip-path="url('#clip-path-background-color')" fill="#000"/><rect x="0" y="0" height="500" width="500" clip-path="url('#clip-path-dot-color')" fill="#ffffff"/><rect x="18" y="18" height="112" width="112" clip-path="url('#clip-path-corners-square-color-0-0')" fill="#ffffff"/><rect x="50" y="50" height="48" width="48" clip-path="url('#clip-path-corners-dot-color-0-0')" fill="#ffffff"/><rect x="370" y="18" height="112" width="112" clip-path="url('#clip-path-corners-square-color-1-0')" fill="#ffffff"/><rect x="402" y="50" height="48" width="48" clip-path="url('#clip-path-corners-dot-color-1-0')" fill="#ffffff"/><rect x="18" y="370" height="112" width="112" clip-path="url('#clip-path-corners-square-color-0-1')" fill="#ffffff"/><rect x="50" y="402" height="48" width="48" clip-path="url('#clip-path-corners-dot-color-0-1')" fill="#ffffff"/></svg>